<svg width="418" height="434" viewBox="0 0 418 434" fill="none" xmlns="http://www.w3.org/2000/svg">
<path d="M7.86404 245.876C7.86404 245.876 -0.964133 226.539 19.3056 213.159C39.5754 199.779 73.422 235.076 99.4604 210.355C125.499 185.635 118.105 187.036 130.885 159.289C143.665 131.542 187.455 119.755 232.457 139.761C277.458 159.767 263.531 131.064 316.946 131.382C370.329 131.701 345.725 257.057 274.94 273.91C204.156 290.762 162.532 323.797 131.937 335.393C101.309 347.021 27.9107 293.725 7.86404 245.876Z" fill="#F1F2F7"/>
<path d="M116.543 392.162H270.829" stroke="#CED5E5" stroke-width="3" stroke-linecap="round" stroke-linejoin="round"/>
<path d="M13.7603 392.162H66.3787" stroke="#CED5E5" stroke-width="3" stroke-linecap="round" stroke-linejoin="round"/>
<path d="M71.2231 392.162H82.7603" stroke="#CED5E5" stroke-width="3" stroke-linecap="round" stroke-linejoin="round"/>
<path d="M98.3768 169.388C98.3768 169.388 90.1541 167.827 88.6881 167.731C87.732 167.668 73.9957 171.65 73.9957 171.65L73.3583 173.465L72.434 176.141C72.434 176.141 71.3185 181.207 77.3421 181.111C83.3657 181.047 94.7116 176.524 94.7116 176.524L98.3768 169.388Z" fill="#FFDFD7"/>
<path d="M288.103 125.999C288.103 125.999 295.178 121.507 296.485 120.87C297.377 120.456 311.592 119.086 311.592 119.086L312.835 120.551L314.683 122.686C314.683 122.686 317.583 126.986 311.974 129.121C306.365 131.255 294.158 131.255 294.158 131.255L288.103 125.999Z" fill="#FFDFD7"/>
<path d="M311.624 119.086C311.624 119.086 311.879 120.902 306.174 122.08C300.469 123.259 297.951 123.641 297.951 123.641" fill="#FFDFD7"/>
<path d="M311.624 119.086C311.624 119.086 311.879 120.902 306.174 122.08C300.469 123.259 297.951 123.641 297.951 123.641" stroke="white" stroke-width="2" stroke-linecap="round" stroke-linejoin="round"/>
<path d="M80.4337 174.198C76.3861 174.421 73.0397 173.625 69.8845 173.657C65.9007 173.688 66.2194 177.416 66.6656 181.366C69.2152 204.335 78.9358 274.802 86.7441 308.092C96.0822 347.818 122.089 395.953 187.137 376.68C252.185 357.406 277.076 276.458 282.143 242.308C287.211 208.157 316.978 128.07 316.978 128.07C316.978 128.07 321.695 117.238 307.13 123.323" stroke="#5900CC" stroke-width="8" stroke-linecap="round" stroke-linejoin="round"/>
<path d="M165.337 105.834C165.05 105.897 168.174 94.0463 164.859 86.7192C161.545 79.3603 169.959 64.3558 179.647 71.874L181.081 85.4768C181.081 85.4768 176.365 103.635 165.337 105.834Z" fill="#FE8163"/>
<path d="M152.111 383.37L142.072 396.526C142.072 396.526 147.235 420.132 168.62 423.159C168.62 423.159 170.692 414.494 167.855 409.683C165.337 405.414 157.784 397.641 155.011 395.889L159.378 392.449L152.111 383.37Z" fill="#5900CC"/>
<path d="M187.456 123.896L191.153 108.382L197.272 110.134L198.037 124.852V133.963L192.172 136.193C192.172 136.193 187.742 131.988 187.711 131.797C187.679 131.605 187.456 123.896 187.456 123.896Z" fill="#FFDFD7"/>
<path d="M166.867 143.329C166.867 143.329 161.768 132.529 163.839 128.611C165.879 124.693 177.703 121.634 185.703 123.96C193.702 126.285 172.476 146.069 166.867 143.329Z" fill="#FFC933"/>
<path d="M305.632 392.162H376.544" stroke="#CED5E5" stroke-width="3" stroke-linecap="round" stroke-linejoin="round"/>
<path d="M381.42 392.162H392.99" stroke="#CED5E5" stroke-width="3" stroke-linecap="round" stroke-linejoin="round"/>
<path d="M399.427 392.162H405.196" stroke="#CED5E5" stroke-width="3" stroke-linecap="round" stroke-linejoin="round"/>
<path d="M352.258 392.162C388.5 392.162 417.88 362.795 417.88 326.569C417.88 290.343 388.5 260.976 352.258 260.976C316.017 260.976 286.637 290.343 286.637 326.569C286.637 362.795 316.017 392.162 352.258 392.162Z" fill="#FFB3DA"/>
<path d="M58.4431 365.625H32.8828C29.3133 365.625 26.4131 362.726 26.4131 359.158V352.691C26.4131 342.752 34.5082 334.692 44.42 334.692H46.9378C56.8815 334.692 64.9448 342.784 64.9448 352.691V359.158C64.9129 362.726 62.0127 365.625 58.4431 365.625ZM44.3882 340.235C37.536 340.235 31.9267 345.81 31.9267 352.691V359.158C31.9267 359.668 32.341 360.082 32.851 360.082H58.4113C58.9212 360.082 59.3355 359.668 59.3355 359.158V352.691C59.3355 345.842 53.7581 340.235 46.8741 340.235H44.3882Z" fill="#5900CC"/>
<path d="M69.8526 372.921C69.8526 359.573 59.0484 348.773 45.6946 348.773C32.3408 348.773 21.5366 359.573 21.5366 372.921C21.5366 386.269 32.3408 392.162 45.6946 392.162C59.0166 392.162 69.8526 386.269 69.8526 372.921Z" fill="#8B34FF"/>
<path d="M173.942 218.193C173.942 218.193 168.429 238.135 173.942 256.771C179.456 275.407 188.507 294.649 188.507 294.649C188.507 294.649 153.545 339.057 149.306 384.358L160.525 393.883C160.525 393.883 207.183 318.987 211.135 308.22C215.087 297.484 202.084 227.081 202.084 227.081L200.809 213.669L175.09 215.23L173.942 218.193Z" fill="#52CB96"/>
<path d="M218.784 212.394C218.784 212.394 237.747 275.152 240.265 292.673C242.815 310.194 242.528 403.758 242.528 403.758H226.401C226.401 403.758 214.8 340.426 218.752 308.06L208.713 268.048L196.124 213.923L218.784 212.394Z" fill="#52CB96"/>
<path d="M94.2017 177.479L98.7273 168.719L102.966 169.834C102.966 169.834 104.432 167.859 107.428 168.273C110.456 168.687 144.653 177.447 144.653 177.447C144.653 177.447 172.476 128.93 187.328 123.833C187.328 123.833 193.065 125.585 195.678 133.453C195.678 133.453 197.176 129.63 198.068 124.82C198.068 124.82 205.717 125.33 218.784 138.678C231.851 152.026 243.739 157.76 243.739 157.76C243.739 157.76 273.442 131.669 276.693 129.503C279.944 127.305 282.621 127.878 282.621 127.878L287.37 124.756L296.007 132.657L292.788 135.301C292.788 135.301 294.095 137.563 292.597 139.442C291.099 141.322 246.799 177.702 243.675 179.295C240.552 180.888 211.9 156.103 211.9 156.103C211.9 156.103 224.298 206.979 217.796 206.788L215.629 208.635L175.089 210.61V209.782C175.089 209.782 172.699 208.157 173.687 200.958C174.675 193.758 179.488 156.581 179.488 156.581C179.488 156.581 155.298 189.234 152.621 192.325C149.944 195.415 135.092 191.751 135.092 191.751C135.092 191.751 99.1735 183.277 98.7592 180.856C98.7592 180.856 98.3767 180.123 98.5679 179.295L94.2017 177.479Z" fill="#FFC933"/>
<path d="M183.631 98.7613C183.631 98.7613 188.379 110.198 192.746 112.683C197.112 115.168 202.434 114.658 205.749 109.497C209.064 104.336 210.561 86.1142 209.86 78.0544C209.159 69.9947 189.144 69.7717 186.403 74.3909C183.631 78.9783 179.551 85.6682 183.631 98.7613Z" fill="#FFDFD7"/>
<path d="M228.409 403.758V412.901C228.409 412.901 236.313 430.614 257.73 433.64C257.73 433.64 259.037 424.593 255.276 421.375C251.515 418.158 243.484 410.544 240.648 409.97L240.201 403.758H228.409Z" fill="#5900CC"/>
<path d="M187.711 106.758C187.711 106.758 176.269 97.0095 176.237 85.541C176.173 74.1363 178.595 70.1861 183.663 66.9685C188.73 63.751 207.438 60.3105 209.829 77.4813C209.829 77.4813 199.662 79.9342 192.3 77.7043C190.675 77.2264 188.953 78.0228 188.284 79.552L185.161 90.7655L182.739 95.1936L187.711 106.758Z" fill="#FE8163"/>
<path d="M182.706 95.1934C182.706 95.1934 177.129 92.7086 178.34 85.8275C179.551 78.9464 183.949 83.6294 185.128 86.8151C185.83 88.7265 185.575 90.4786 185.447 91.2113C185.097 93.951 182.706 95.1934 182.706 95.1934Z" fill="#FFDFD7"/>
<path d="M187.71 106.757C187.71 106.757 174.58 93.8234 174.803 84.0752C174.962 77.7357 176.715 74.1041 179.01 71.3325" stroke="#FF562F" stroke-width="3" stroke-linecap="round" stroke-linejoin="round"/>
<path d="M175.089 215.23V209.782C175.089 209.782 208.522 210.069 217.796 206.819L218.784 212.394C218.784 212.394 208.458 215.58 197.781 216.026C187.105 216.44 179.264 216.217 175.089 215.23Z" fill="#FFC933" stroke="#FEAC00" stroke-width="3" stroke-linecap="round" stroke-linejoin="round"/>
<path d="M166.548 144.062C166.548 144.062 175.918 132.02 180.316 128.388C184.714 124.757 185.957 124.438 187.487 123.896" stroke="#FEAC00" stroke-width="3" stroke-linecap="round" stroke-linejoin="round"/>
<path d="M163.425 129.79C163.425 129.79 167.982 134.186 177.735 130.809" stroke="#FEAC00" stroke-width="3" stroke-linecap="round" stroke-linejoin="round"/>
<path d="M195.646 133.453C195.646 133.453 199.247 166.903 200.172 178.849C201.064 190.795 201.064 209.113 201.064 209.113" stroke="#FEAC00" stroke-width="3" stroke-linecap="round" stroke-linejoin="round"/>
<path d="M202.084 227.08L208.713 268.048C208.713 268.048 212.091 293.756 211.868 299.809C211.645 305.894 211.741 307.741 208.681 313.348C205.622 318.955 160.525 393.85 160.525 393.85L149.306 384.325" stroke="#F1F2F7" stroke-width="3" stroke-linecap="round" stroke-linejoin="round"/>
<path d="M72.4341 176.141C72.4341 176.141 75.6849 174.134 77.9477 174.23C80.2105 174.294 84.3537 173.816 84.513 176.81C84.6087 178.212 84.7361 179.869 84.7361 179.869" fill="#FFDFD7"/>
<path d="M72.4341 176.141C72.4341 176.141 75.6849 174.134 77.9477 174.23C80.2105 174.294 84.3537 173.816 84.513 176.81C84.6087 178.212 84.7361 179.869 84.7361 179.869" stroke="white" stroke-width="2" stroke-linecap="round" stroke-linejoin="round"/>
<path d="M73.9956 171.65C73.9956 171.65 74.4099 173.434 80.1785 172.414C85.9152 171.363 88.4011 170.821 88.4011 170.821" fill="#FFDFD7"/>
<path d="M73.9956 171.65C73.9956 171.65 74.4099 173.434 80.1785 172.414C85.9152 171.363 88.4011 170.821 88.4011 170.821" stroke="white" stroke-width="2" stroke-linecap="round" stroke-linejoin="round"/>
<path d="M314.715 122.685C314.715 122.685 310.954 122.016 308.883 122.94C306.811 123.832 302.795 124.915 303.719 127.751C304.166 129.057 304.644 130.649 304.644 130.649" fill="#FFDFD7"/>
<path d="M314.715 122.685C314.715 122.685 310.954 122.016 308.883 122.94C306.811 123.832 302.795 124.915 303.719 127.751C304.166 129.057 304.644 130.649 304.644 130.649" stroke="white" stroke-width="2" stroke-linecap="round" stroke-linejoin="round"/>
<path d="M286.796 331.252C286.796 331.252 353.501 351.099 415.872 310.481" stroke="#ED85C3" stroke-width="3" stroke-linecap="round" stroke-linejoin="round"/>
<path d="M54.6182 57.0923L56.8172 108.637L76.2902 100.386L89.5165 131.255L86.1383 79.0416L67.6851 86.6554L54.6182 57.0923Z" fill="#F1F2F7"/>
<path d="M283.386 76.4935L309.138 47.7268L294.414 41.9607L303.465 18.5142L277.968 48.2684L291.832 53.8433L283.386 76.4935Z" fill="#F1F2F7"/>
<path d="M223.473 3.79014L217.88 0L214.089 5.58998L219.681 9.38013L223.473 3.79014Z" fill="#F1F2F7"/>
<path d="M11.3992 121.956L8.83496 113.679L0.554479 116.242L3.11872 124.519L11.3992 121.956Z" fill="#F1F2F7"/>
<path d="M96.783 35.6531C99.1592 35.6531 101.086 33.7276 101.086 31.3524C101.086 28.9772 99.1592 27.0518 96.783 27.0518C94.4068 27.0518 92.4805 28.9772 92.4805 31.3524C92.4805 33.7276 94.4068 35.6531 96.783 35.6531Z" fill="#F1F2F7"/>
<path d="M236.345 47.5038C237.929 47.5038 239.213 46.2201 239.213 44.6366C239.213 43.0532 237.929 41.7695 236.345 41.7695C234.761 41.7695 233.477 43.0532 233.477 44.6366C233.477 46.2201 234.761 47.5038 236.345 47.5038Z" fill="#F1F2F7"/>
</svg>
